# xmcd CD database file
#
# Track frame offsets:
#	150
#	27383
#	48660
#	70913
#	83656
#	95734
#	113556
#	126648
#	153762
#	184464
#
# Disc length: 2602 seconds
#
# Revision: 0
# Processed by: cddbd v1.5.1PL0 Copyright (c) Steve Scherf et al.
# Submitted via: CDex 1.51
#
DISCID=890a280a
DTITLE=Maria Braganca - Trova Brasileira
DYEAR=2004
DGENRE=Jazz
TTITLE0=Lamento
TTITLE1=Odeon
TTITLE2=Noites Cariocas
TTITLE3=Na Gloria
TTITLE4=Espinha de Bacalhau
TTITLE5=Receita de samba
TTITLE6=Valsa de Esquina
TTITLE7=Rosa
TTITLE8=Trovas de amor
TTITLE9=Tico-Tico no fuba
EXTD=YEAR: 2004
EXTT0=
EXTT1=
EXTT2=
EXTT3=
EXTT4=
EXTT5=
EXTT6=
EXTT7=
EXTT8=
EXTT9=
PLAYORDER=
